<?xml version="1.0" encoding="UTF-8" standalone="no"?>
<svg
   xmlns:dc="http://purl.org/dc/elements/1.1/"
   xmlns:cc="http://creativecommons.org/ns#"
   xmlns:rdf="http://www.w3.org/1999/02/22-rdf-syntax-ns#"
   xmlns:svg="http://www.w3.org/2000/svg"
   xmlns="http://www.w3.org/2000/svg"
   xmlns:sodipodi="http://sodipodi.sourceforge.net/DTD/sodipodi-0.dtd"
   xmlns:inkscape="http://www.inkscape.org/namespaces/inkscape"
   viewBox="0 0 134 80.000002"
   height="80"
   width="134"
   id="svg2"
   version="1.1"
   inkscape:version="0.91 r"
   sodipodi:docname="LogoArteEtMarte-white-bg-transparent-134x80.svg">
  <metadata
     id="metadata25">
    <rdf:RDF>
      <cc:Work
         rdf:about="">
        <dc:format>image/svg+xml</dc:format>
        <dc:type
           rdf:resource="http://purl.org/dc/dcmitype/StillImage" />
        <dc:title></dc:title>
      </cc:Work>
    </rdf:RDF>
  </metadata>
  <sodipodi:namedview
     pagecolor="#ffffff"
     bordercolor="#666666"
     borderopacity="1"
     objecttolerance="10"
     gridtolerance="10"
     guidetolerance="10"
     inkscape:pageopacity="0"
     inkscape:pageshadow="2"
     inkscape:window-width="1920"
     inkscape:window-height="1028"
     id="namedview23"
     showgrid="false"
     fit-margin-top="0"
     fit-margin-left="0"
     fit-margin-right="0"
     fit-margin-bottom="0"
     inkscape:zoom="4.7733333"
     inkscape:cx="-18.149203"
     inkscape:cy="10.158635"
     inkscape:window-x="0"
     inkscape:window-y="0"
     inkscape:window-maximized="1"
     inkscape:current-layer="svg2" />
  <defs
     id="defs4">
    <clipPath
       id="a">
      <path
         d="m 0,5520 1940,0 L 1940,0 0,0 0,5520 Z"
         id="path7"
         inkscape:connector-curvature="0" />
    </clipPath>
  </defs>
  <path
     d="M 0,0 134,0 134,80 0,80 Z"
     id="path21"
     inkscape:connector-curvature="0"
     style="fill:none;fill-opacity:1" />
  <path
     style="fill:#ffffff"
     inkscape:connector-curvature="0"
     id="path11"
     d="m 112.81052,20.429784 c -0.63008,-1.337854 -1.94123,-2.23441 -3.3416,-2.284185 L 26.094032,16.554014 c -1.175174,-0.02003 -2.394054,0.517781 -3.348276,1.468968 -0.998535,0.9955 -1.561842,3.391982 -1.546059,4.628465 l 0.485609,32.898216 0.222166,0 0.484396,-32.842978 0.137184,-1.329963 0.230665,-0.949366 0.325358,-0.718702 c 0.236128,-0.341141 0.551774,-0.71506 0.903234,-0.94451 l 0.611867,-0.362993 0.728415,-0.269514 0.794578,-0.169963 41.579699,1.2899 41.579702,0.956044 0.40244,0.06556 0.34479,0.113511 0.28894,0.156609 c 0.16814,0.113511 0.31989,0.265264 0.43279,0.432193 l 0.18089,0.317467 0.15176,0.403056 0.0874,0.376347 -4.33043,35.813694 -0.62279,1.269868 -0.8225,1.047703 -0.46436,0.412768 -0.50504,0.345389 -0.55116,0.282868 -0.49108,0.179675 -55.676937,0.324144 -16.180505,-2.157319 -0.101371,-0.01093 -0.04735,0.212455 16.28309,2.655069 55.89729,0.993071 0.0158,0 c 0.64161,0 1.4289,-0.443118 1.90116,-0.722344 1.51874,-0.902019 3.17467,-2.705451 3.39805,-4.431793 l 4.3717,-36.149371 c 0.0498,-0.426729 -0.0929,-0.981538 -0.43523,-1.707524" />
  <path
     style="fill:#ffffff"
     inkscape:connector-curvature="0"
     id="path13"
     d="M 103.7539,42.072181" />
  <path
     style="fill:#ffffff;fill-rule:evenodd"
     inkscape:connector-curvature="0"
     id="path15"
     d="m 103.98335,26.619483 0.0898,-2.11058 -14.834152,-0.63372 c 0,0 0.605191,1.688099 1.322071,1.719057 l 3.237801,0.138399 c 0.675604,0.02853 1.598869,0.520209 1.550308,1.667461 l -0.37574,8.790137 c -0.01093,0.24584 -0.464364,1.252873 -1.217666,1.590371 -0.690172,0.298043 -2.590119,0.565735 -2.590119,0.565735 l 9.261177,0.396379 c 0,0 0.53053,-1.845316 -0.37088,-1.884165 -0.922054,-0.03945 -1.669892,1.11933 -2.572518,0.628864 -0.922051,-0.511103 -0.220953,-11.155662 -0.220953,-11.155662 l 6.720831,0.287724 z m -17.965724,9.225365 c -0.912338,0.206991 -2.55734,1.245588 -3.175885,-0.611868 -0.207598,-0.911732 0.0868,-2.031669 0.13597,-3.178921 l 0.225202,0.0097 c 1.352422,0.05767 3.236587,-0.333856 3.304572,-1.915122 -0.480753,0.20517 -3.472107,0.549953 -3.431438,-0.392736 l 0.11594,-2.711522 c 0.04856,-1.147252 1.215237,-1.549094 2.117257,-1.510852 1.402804,-0.165714 2.529418,-0.588802 3.274221,-1.686886 L 78.318289,23.407784 c 0.216703,0.68653 0.413375,1.372453 0.610047,2.058377 l 0.901412,0.03885 c 0.225202,0.0091 1.372454,0.05827 1.304469,1.660177 l -0.08802,2.048665 c -0.04917,1.150894 -0.02974,0.700492 -0.940868,0.886844 -0.942689,0.432193 -1.421622,1.088979 -0.05827,1.356065 1.342103,0.303505 0.764228,3.258439 0.71506,4.409333 0,0 -0.05767,1.352422 -2.812286,1.915122 l 9.097285,0.389095 c 1.197028,-1.101727 0.332643,-2.49664 -1.029492,-2.324855 M 74.994293,35.373199 c -0.911732,0.207599 -2.557341,1.245589 -3.175886,-0.61126 -0.207598,-0.911732 0.0868,-2.032276 0.135971,-3.178921 l 0.225201,0.0091 c 1.352422,0.05827 3.237194,-0.333249 3.304572,-1.914515 -0.480753,0.204563 -3.472107,0.549346 -3.431437,-0.393343 l 0.115332,-2.711522 c 0.04917,-1.147252 1.216452,-1.54788 2.117864,-1.510245 1.402804,-0.165714 2.529418,-0.590016 3.274222,-1.686886 L 67.294956,22.936743 c 0.216703,0.68653 0.413375,1.371846 0.610046,2.058376 l 0.901413,0.03824 c 0.225201,0.0091 1.373061,0.05827 1.304468,1.660784 l -0.08741,2.048665 c -0.04977,1.150894 -0.03035,0.699885 -0.941476,0.886237 -0.942082,0.432193 -1.421621,1.088979 -0.05827,1.356064 1.342103,0.303506 0.764228,3.259654 0.71506,4.409941 0,0 -0.05827,1.352422 -2.812285,1.915122 l 9.097285,0.388488 c 1.197027,-1.10112 0.332642,-2.49664 -1.029492,-2.324855 m -8.506663,-10.357442 0.09045,-2.11058 -14.834761,-0.634327 c 0,0 0.605191,1.688706 1.322679,1.719057 l 3.236587,0.138399 c 0.676818,0.02914 1.600083,0.520209 1.550915,1.668068 l -0.375741,8.78953 c -0.01093,0.24584 -0.464364,1.252873 -1.217665,1.590371 -0.690173,0.29865 -2.590119,0.566342 -2.590119,0.566342 l 9.261178,0.396379 c 0,0 0.530528,-1.845316 -0.370884,-1.884165 -0.922051,-0.03946 -1.669889,1.11933 -2.572516,0.628864 -0.922051,-0.511104 -0.220345,-11.155662 -0.220345,-11.155662 l 6.720227,0.287724 z m -21.175605,3.158889 c -0.880774,-0.03824 -1.558806,-0.990643 -1.499926,-2.363097 0.04795,-1.127221 0.588801,-2.253227 1.470182,-2.215593 0.922051,0.03885 1.774296,1.226164 1.726342,2.352171 -0.05888,1.373061 -0.774547,2.265975 -1.696598,2.226519 m 5.170526,7.733937 c -0.154788,-0.211847 -0.461329,-0.24584 -0.687137,-0.254945 l -3.405336,-6.282572 c 1.158785,-0.217917 2.599224,-1.265012 2.69756,-3.560124 0.153574,-3.585618 -3.388947,-3.798679 -6.687449,-3.939506 l -0.165714,3.872735 -0.379989,8.892722 c 0,0 -0.293794,1.587943 -0.765442,1.567912 l 0.696849,0.03035 0.69685,0.02914 1.823463,0.07891 1.127221,0.04735 C 44.74629,36.136213 44.374192,34.744942 44.374192,34.744942 l 0.155395,-3.626895 c 0.0097,-0.224594 0.01942,-0.45101 0.254945,-0.687137 l 2.481464,5.340489 c -0.01032,0.24584 -0.02003,0.471648 -0.254945,0.687138 l 1.843494,0.07891 0.676211,0.02914 0.676212,0.02853 0.245839,0.01032 c 0,0 0.340534,-0.272548 0.02974,-0.696242 M 34.824683,28.137012 32.079168,28.019859 c 0.783046,-1.998283 1.410696,-3.716733 1.546666,-4.018418 0.228237,-0.524458 0.49168,-0.451617 0.676211,0.02853 0.176034,0.685923 0.176034,0.685923 1.002177,3.450255 -0.02853,0.676818 -0.479539,0.656786 -0.479539,0.656786 m 4.539234,6.167847 -3.856346,-11.578143 c 0.23552,-0.236127 0.254338,-0.665891 0.274369,-1.138147 l -3.667565,-0.156002 -0.04917,1.147253 -4.09308,11.237608 -0.24584,-0.01032 -1.450758,1.76519 4.548339,0.194244 c 0,0 -0.627043,-1.176389 -0.597907,-1.8526 0.02003,-0.471041 0.569378,-2.274473 1.332998,-4.294608 l 3.872735,0.165107 c 0,0 0.45101,0.02003 0.655573,0.500785 0.412768,0.920837 0.589408,2.05777 1.207346,3.458753 0.196672,1.630434 -0.302898,2.286006 -0.302898,2.286006 l 0.471041,0.02064 1.823463,0.0777 0.880774,0.03764 c 0,0 -0.421873,-0.695029 -0.803076,-1.861098 m 56.0891,23.318357 c -0.912946,0.202134 -2.565839,1.228591 -3.171636,-0.6319 -0.201528,-0.914159 0.100764,-2.032275 0.157216,-3.17892 l 0.225808,0.01093 c 1.351815,0.06738 3.239015,-0.311397 3.317319,-1.892056 -0.482574,0.201528 -3.475749,0.525672 -3.429616,-0.41641 l 0.134757,-2.710307 c 0.05706,-1.147253 1.226163,-1.541203 2.127576,-1.496284 1.404018,-0.156609 2.53306,-0.573019 3.285754,-1.665034 l -10.26214,-0.508675 c 0.212454,0.688351 0.404269,1.375488 0.596085,2.062626 l 0.901413,0.04431 c 0.224594,0.01214 1.371846,0.0692 1.292935,1.669283 l -0.101371,2.048664 c -0.05706,1.150288 -0.0346,0.699885 -0.947546,0.880168 -0.94451,0.425515 -1.428905,1.079266 -0.06677,1.355457 1.339675,0.313825 0.741768,3.264509 0.684709,4.414796 0,0 -0.06677,1.351815 -2.825032,1.895698 l 9.09425,0.450403 c 1.204311,-1.092621 0.349639,-2.494212 -1.01371,-2.332746 m -8.436249,-10.413287 0.104406,-2.11058 -14.829298,-0.734484 c 0,0 0.593658,1.692348 1.310539,1.727555 l 3.235373,0.160858 c 0.676818,0.03399 1.59644,0.531136 1.539381,1.677781 l -0.435227,8.787102 c -0.01214,0.246447 -0.472255,1.250444 -1.227985,1.58248 -0.691993,0.293793 -2.593761,0.548738 -2.593761,0.548738 l 9.258143,0.458294 c 0,0 0.543276,-1.841673 -0.358137,-1.886592 -0.922658,-0.04553 -1.677173,1.108403 -2.576765,0.611867 -0.918408,-0.517781 -0.145682,-11.156876 -0.145682,-11.156876 l 6.719013,0.333857 z m -21.196851,3.01442 c -0.880167,-0.0437 -1.551522,-1.000962 -1.483537,-2.373416 0.05584,-1.126614 0.604584,-2.249585 1.485358,-2.205273 0.921444,0.04613 1.765797,1.237696 1.709952,2.36431 -0.06798,1.371847 -0.789722,2.259905 -1.711773,2.214379 m 5.11893,7.769144 c -0.154181,-0.212454 -0.460115,-0.248875 -0.685923,-0.260408 l -3.362845,-6.305031 c 1.159392,-0.210027 2.608329,-1.24741 2.721841,-3.541914 0.177854,-3.583798 -3.362846,-3.820532 -6.660741,-3.983818 l -0.191815,3.870307 -0.440691,8.890294 c 0,0 -0.304113,1.586729 -0.775154,1.563662 l 0.696243,0.0346 0.696849,0.03399 1.82225,0.09044 1.12722,0.05585 c -0.685923,-0.259801 -1.047702,-1.6535 -1.047702,-1.6535 l 0.179676,-3.626288 c 0.01093,-0.224594 0.02246,-0.449796 0.259801,-0.684709 l 2.444436,5.357486 c -0.01214,0.245232 -0.02307,0.471041 -0.259194,0.685316 l 1.842888,0.09105 0.676211,0.03278 0.676211,0.0346 0.24584,0.01214 c 0,0 0.341747,-0.271334 0.0346,-0.697456 M 55.332575,50.116301 52.588882,49.979723 c 0.796399,-1.992819 1.435583,-3.70702 1.573981,-4.008098 0.230665,-0.52203 0.494715,-0.448582 0.676211,0.03278 0.171178,0.687138 0.171178,0.687138 0.978503,3.458146 -0.03339,0.674998 -0.484395,0.653145 -0.484395,0.653145 m 4.497957,6.198804 -3.778041,-11.604244 c 0.236734,-0.234913 0.258587,-0.665285 0.28226,-1.136326 l -3.666351,-0.180889 c -0.02428,0.470434 -0.04492,0.900805 -0.05706,1.146038 l -4.170171,11.2109 -0.245232,-0.01214 -1.462899,1.754264 4.547732,0.225201 c 0,0 -0.619152,-1.180637 -0.585766,-1.856242 0.02367,-0.471648 0.584552,-2.270224 1.362134,-4.285503 l 3.871521,0.191209 c 0,0 0.450403,0.02246 0.652538,0.505034 0.406091,0.924479 0.575447,2.062019 1.183066,3.467251 0.186353,1.631041 -0.318074,2.283578 -0.318074,2.283578 l 0.471041,0.02367 1.822856,0.08984 0.880167,0.04431 c 0,0 -0.41641,-0.698063 -0.789722,-1.866561 m -23.446436,-13.728178 -4.874912,-0.242197 1.322679,1.482929 -0.48136,9.708546 c -0.09105,1.844102 -0.856494,3.202594 -2.023778,3.144321 l 1.863527,0.09166 2.314535,0.115332 2.335175,0.115333 c 0,0 -0.22156,-0.91416 -0.401842,-1.416159 -0.468613,-0.494715 -2.120899,0.121402 -2.097833,-0.349639 l 0.342962,-6.924183 c 0.0346,-0.695635 0.0346,-0.695635 1.367597,0.991857 0,0 1.719665,2.17978 2.415907,2.213772 0.69685,0.03521 2.201632,-1.738481 2.201632,-1.738481 1.444081,-1.796755 1.432548,-1.570947 1.397341,-0.854673 l -0.354495,7.148171 c -0.02307,0.472255 -0.473469,0.449188 -0.710204,0.66407 -0.237341,0.2337 -0.248875,0.458901 -0.248875,0.458901 l 0.901413,0.04553 2.109973,0.104406 2.089334,0.103192 c 0,0 0.269513,-0.889879 -0.188173,-1.179424 -0.664678,-0.259194 -1.831962,-0.31686 -1.831962,-0.31686 l 0.572412,-11.552648 c 0.01153,-0.245839 0.933584,-0.200314 1.404625,-0.176033 0.46315,-0.223987 0.754516,-1.133898 0.754516,-1.133898 l -2.089334,-0.103192 -0.24584,-0.01214 -1.167891,-0.05827 -0.696242,-0.0346 -0.901413,-0.04431 c 0,0 0.639184,1.201883 0.616724,1.652286 -0.01214,0.246447 -3.001673,3.793824 -3.464216,4.017204 -0.684102,-0.279225 -1.919371,-3.112756 -2.760689,-4.777183 -0.191209,-0.707168 0.262229,-1.156964 0.5281,-1.144217" />
  <path
     style="fill:#ffffff;fill-rule:evenodd"
     inkscape:connector-curvature="0"
     id="path17"
     d="m 77.452083,32.984608 c 0.611868,0 1.110225,-0.529921 1.110225,-1.179424 0,-0.650109 -0.498357,-1.18003 -1.110225,-1.18003 -0.611867,0 -1.110224,0.529921 -1.110224,1.18003 0,0.649503 0.498357,1.179424 1.110224,1.179424" />
  <path
     style="fill:#ffffff;stroke:none;stroke-width:0.2215593;stroke-miterlimit:22.9260006"
     inkscape:connector-curvature="0"
     id="path19"
     stroke-miterlimit="22.926"
     d="m 77.452083,32.984608 c 0.611868,0 1.110225,-0.529921 1.110225,-1.179424 0,-0.650109 -0.498357,-1.18003 -1.110225,-1.18003 -0.611867,0 -1.110224,0.529921 -1.110224,1.18003 0,0.649503 0.498357,1.179424 1.110224,1.179424 z" />
</svg>
