<?xml version="1.0" encoding="UTF-8" standalone="no"?>
<svg
   xmlns:dc="http://purl.org/dc/elements/1.1/"
   xmlns:cc="http://creativecommons.org/ns#"
   xmlns:rdf="http://www.w3.org/1999/02/22-rdf-syntax-ns#"
   xmlns:svg="http://www.w3.org/2000/svg"
   xmlns="http://www.w3.org/2000/svg"
   xmlns:sodipodi="http://sodipodi.sourceforge.net/DTD/sodipodi-0.dtd"
   xmlns:inkscape="http://www.inkscape.org/namespaces/inkscape"
   viewBox="0 0 134 80.000002"
   height="80"
   width="134"
   id="svg2"
   version="1.1"
   inkscape:version="0.91 r"
   sodipodi:docname="LogoArteEtMarte-134x80.svg">
  <metadata
     id="metadata25">
    <rdf:RDF>
      <cc:Work
         rdf:about="">
        <dc:format>image/svg+xml</dc:format>
        <dc:type
           rdf:resource="http://purl.org/dc/dcmitype/StillImage" />
        <dc:title></dc:title>
      </cc:Work>
    </rdf:RDF>
  </metadata>
  <sodipodi:namedview
     pagecolor="#ffffff"
     bordercolor="#666666"
     borderopacity="1"
     objecttolerance="10"
     gridtolerance="10"
     guidetolerance="10"
     inkscape:pageopacity="0"
     inkscape:pageshadow="2"
     inkscape:window-width="1920"
     inkscape:window-height="1028"
     id="namedview23"
     showgrid="false"
     fit-margin-top="0"
     fit-margin-left="0"
     fit-margin-right="0"
     fit-margin-bottom="0"
     inkscape:zoom="2.3866667"
     inkscape:cx="88.531675"
     inkscape:cy="55.739628"
     inkscape:window-x="0"
     inkscape:window-y="0"
     inkscape:window-maximized="1"
     inkscape:current-layer="svg2" />
  <defs
     id="defs4">
    <clipPath
       id="a">
      <path
         d="m 0,5520 1940,0 L 1940,0 0,0 0,5520 Z"
         id="path7"
         inkscape:connector-curvature="0" />
    </clipPath>
  </defs>
  <g
     clip-path="url(#a)"
     transform="matrix(0.60701176,0,0,-0.60701176,-108.90599,2871.5276)"
     id="g9">
    <path
       d="m 365.259,4696.94 c -1.038,2.204 -3.198,3.681 -5.505,3.763 l -137.353,2.622 c -1.936,0.033 -3.944,-0.853 -5.516,-2.42 -1.645,-1.64 -2.573,-5.588 -2.547,-7.625 l 0.8,-54.197 0.366,0 0.798,54.106 0.226,2.191 0.38,1.564 0.536,1.184 c 0.389,0.562 0.909,1.178 1.488,1.556 l 1.008,0.598 1.2,0.444 1.309,0.28 68.499,-2.125 68.499,-1.575 0.663,-0.108 0.568,-0.187 0.476,-0.258 c 0.277,-0.187 0.527,-0.437 0.713,-0.712 l 0.298,-0.523 0.25,-0.664 0.144,-0.62 -7.134,-59 -1.026,-2.092 -1.355,-1.726 -0.765,-0.68 -0.832,-0.569 -0.908,-0.466 -0.809,-0.296 -91.723,-0.534 -26.656,3.554 -0.167,0.018 -0.078,-0.35 26.825,-4.374 92.086,-1.636 0.026,0 c 1.057,0 2.354,0.73 3.132,1.19 2.502,1.486 5.23,4.457 5.598,7.301 l 7.202,59.553 c 0.082,0.703 -0.153,1.617 -0.717,2.813"
       id="path11"
       inkscape:connector-curvature="0"
       style="fill:#e12f31" />
    <path
       d="M 350.339,4661.286"
       id="path13"
       inkscape:connector-curvature="0"
       style="fill:#e12f31" />
    <path
       d="m 350.717,4686.743 0.148,3.477 -24.438,1.044 c 0,0 0.997,-2.781 2.178,-2.832 l 5.334,-0.228 c 1.113,-0.047 2.634,-0.857 2.554,-2.747 l -0.619,-14.481 c -0.018,-0.405 -0.765,-2.064 -2.006,-2.62 -1.137,-0.491 -4.267,-0.932 -4.267,-0.932 l 15.257,-0.653 c 0,0 0.874,3.04 -0.611,3.104 -1.519,0.065 -2.751,-1.844 -4.238,-1.036 -1.519,0.842 -0.364,18.378 -0.364,18.378 l 11.072,-0.474 z m -29.597,-15.198 c -1.503,-0.341 -4.213,-2.052 -5.232,1.008 -0.342,1.502 0.143,3.347 0.224,5.237 l 0.371,-0.016 c 2.228,-0.095 5.332,0.55 5.444,3.155 -0.792,-0.338 -5.72,-0.906 -5.653,0.647 l 0.191,4.467 c 0.08,1.89 2.002,2.552 3.488,2.489 2.311,0.273 4.167,0.97 5.394,2.779 l -16.911,0.723 c 0.357,-1.131 0.681,-2.261 1.005,-3.391 l 1.485,-0.064 c 0.371,-0.015 2.261,-0.096 2.149,-2.735 l -0.145,-3.375 c -0.081,-1.896 -0.049,-1.154 -1.55,-1.461 -1.553,-0.712 -2.342,-1.794 -0.096,-2.234 2.211,-0.5 1.259,-5.368 1.178,-7.264 0,0 -0.095,-2.228 -4.633,-3.155 l 14.987,-0.641 c 1.972,1.815 0.548,4.113 -1.696,3.83 m -18.16,0.778 c -1.502,-0.342 -4.213,-2.052 -5.232,1.007 -0.342,1.502 0.143,3.348 0.224,5.237 l 0.371,-0.015 c 2.228,-0.096 5.333,0.549 5.444,3.154 -0.792,-0.337 -5.72,-0.905 -5.653,0.648 l 0.19,4.467 c 0.081,1.89 2.004,2.55 3.489,2.488 2.311,0.273 4.167,0.972 5.394,2.779 l -16.911,0.723 c 0.357,-1.131 0.681,-2.26 1.005,-3.391 l 1.485,-0.063 c 0.371,-0.015 2.262,-0.096 2.149,-2.736 l -0.144,-3.375 c -0.082,-1.896 -0.05,-1.153 -1.551,-1.46 -1.552,-0.712 -2.342,-1.794 -0.096,-2.234 2.211,-0.5 1.259,-5.37 1.178,-7.265 0,0 -0.096,-2.228 -4.633,-3.155 l 14.987,-0.64 c 1.972,1.814 0.548,4.113 -1.696,3.83 m -14.014,17.063 0.149,3.477 -24.439,1.045 c 0,0 0.997,-2.782 2.179,-2.832 l 5.332,-0.228 c 1.115,-0.048 2.636,-0.857 2.555,-2.748 l -0.619,-14.48 c -0.018,-0.405 -0.765,-2.064 -2.006,-2.62 -1.137,-0.492 -4.267,-0.933 -4.267,-0.933 l 15.257,-0.653 c 0,0 0.874,3.04 -0.611,3.104 -1.519,0.065 -2.751,-1.844 -4.238,-1.036 -1.519,0.842 -0.363,18.378 -0.363,18.378 l 11.071,-0.474 z m -34.885,-5.204 c -1.451,0.063 -2.568,1.632 -2.471,3.893 0.079,1.857 0.97,3.712 2.422,3.65 1.519,-0.064 2.923,-2.02 2.844,-3.875 -0.097,-2.262 -1.276,-3.733 -2.795,-3.668 m 8.518,-12.741 c -0.255,0.349 -0.76,0.405 -1.132,0.42 l -5.61,10.35 c 1.909,0.359 4.282,2.084 4.444,5.865 0.253,5.907 -5.583,6.258 -11.017,6.49 l -0.273,-6.38 -0.626,-14.65 c 0,0 -0.484,-2.616 -1.261,-2.583 l 1.148,-0.05 1.148,-0.048 3.004,-0.13 1.857,-0.078 c -1.132,0.42 -1.745,2.712 -1.745,2.712 l 0.256,5.975 c 0.016,0.37 0.032,0.743 0.42,1.132 l 4.088,-8.798 c -0.017,-0.405 -0.033,-0.777 -0.42,-1.132 l 3.037,-0.13 1.114,-0.048 1.114,-0.047 0.405,-0.017 c 0,0 0.561,0.449 0.049,1.147 m -25.795,12.804 -4.523,0.193 c 1.29,3.292 2.324,6.123 2.548,6.62 0.376,0.864 0.81,0.744 1.114,-0.047 0.29,-1.13 0.29,-1.13 1.651,-5.684 -0.047,-1.115 -0.79,-1.082 -0.79,-1.082 m 7.478,-10.161 -6.353,19.074 c 0.388,0.389 0.419,1.097 0.452,1.875 l -6.042,0.257 -0.081,-1.89 -6.743,-18.513 -0.405,0.017 -2.39,-2.908 7.493,-0.32 c 0,0 -1.033,1.938 -0.985,3.052 0.033,0.776 0.938,3.747 2.196,7.075 l 6.38,-0.272 c 0,0 0.743,-0.033 1.08,-0.825 0.68,-1.517 0.971,-3.39 1.989,-5.698 0.324,-2.686 -0.499,-3.766 -0.499,-3.766 l 0.776,-0.034 3.004,-0.128 1.451,-0.062 c 0,0 -0.695,1.145 -1.323,3.066 m 92.402,-38.415 c -1.504,-0.333 -4.227,-2.024 -5.225,1.041 -0.332,1.506 0.166,3.348 0.259,5.237 l 0.372,-0.018 c 2.227,-0.111 5.336,0.513 5.465,3.117 -0.795,-0.332 -5.726,-0.866 -5.65,0.686 l 0.222,4.465 c 0.094,1.89 2.02,2.539 3.505,2.465 2.313,0.258 4.173,0.944 5.413,2.743 l -16.906,0.838 c 0.35,-1.134 0.666,-2.266 0.982,-3.398 l 1.485,-0.073 c 0.37,-0.02 2.26,-0.114 2.13,-2.75 l -0.167,-3.375 c -0.094,-1.895 -0.057,-1.153 -1.561,-1.45 -1.556,-0.701 -2.354,-1.778 -0.11,-2.233 2.207,-0.517 1.222,-5.378 1.128,-7.273 0,0 -0.11,-2.227 -4.654,-3.123 l 14.982,-0.742 c 1.984,1.8 0.576,4.109 -1.67,3.843 m -13.898,17.155 0.172,3.477 -24.43,1.21 c 0,0 0.978,-2.788 2.159,-2.846 l 5.33,-0.265 c 1.115,-0.056 2.63,-0.875 2.536,-2.764 l -0.717,-14.476 c -0.02,-0.406 -0.778,-2.06 -2.023,-2.607 -1.14,-0.484 -4.273,-0.904 -4.273,-0.904 l 15.252,-0.755 c 0,0 0.895,3.034 -0.59,3.108 -1.52,0.075 -2.763,-1.826 -4.245,-1.008 -1.513,0.853 -0.24,18.38 -0.24,18.38 l 11.069,-0.55 z m -34.92,-4.966 c -1.45,0.072 -2.556,1.649 -2.444,3.91 0.092,1.856 0.996,3.706 2.447,3.633 1.518,-0.076 2.909,-2.039 2.817,-3.895 -0.112,-2.26 -1.301,-3.723 -2.82,-3.648 m 8.433,-12.799 c -0.254,0.35 -0.758,0.41 -1.13,0.429 l -5.54,10.387 c 1.91,0.346 4.297,2.055 4.484,5.835 0.293,5.904 -5.54,6.294 -10.973,6.563 l -0.316,-6.376 -0.726,-14.646 c 0,0 -0.501,-2.614 -1.277,-2.576 l 1.147,-0.057 1.148,-0.056 3.002,-0.149 1.857,-0.092 c -1.13,0.428 -1.726,2.724 -1.726,2.724 l 0.296,5.974 c 0.018,0.37 0.037,0.741 0.428,1.128 l 4.027,-8.826 c -0.02,-0.404 -0.038,-0.776 -0.427,-1.129 l 3.036,-0.15 1.114,-0.054 1.114,-0.057 0.405,-0.02 c 0,0 0.563,0.447 0.057,1.149 m -25.71,12.976 -4.52,0.225 c 1.312,3.283 2.365,6.107 2.593,6.603 0.38,0.86 0.815,0.739 1.114,-0.054 0.282,-1.132 0.282,-1.132 1.612,-5.697 -0.055,-1.112 -0.798,-1.076 -0.798,-1.076 m 7.41,-10.212 -6.224,19.117 c 0.39,0.387 0.426,1.096 0.465,1.872 l -6.04,0.298 c -0.04,-0.775 -0.074,-1.484 -0.094,-1.888 l -6.87,-18.469 -0.404,0.02 -2.41,-2.89 7.492,-0.371 c 0,0 -1.02,1.945 -0.965,3.058 0.039,0.777 0.963,3.74 2.244,7.06 l 6.378,-0.315 c 0,0 0.742,-0.037 1.075,-0.832 0.669,-1.523 0.948,-3.397 1.949,-5.712 0.307,-2.687 -0.524,-3.762 -0.524,-3.762 l 0.776,-0.039 3.003,-0.148 1.45,-0.073 c 0,0 -0.686,1.15 -1.301,3.075 m -38.626,22.616 -8.031,0.399 2.179,-2.443 -0.793,-15.994 c -0.15,-3.038 -1.411,-5.276 -3.334,-5.18 l 3.07,-0.151 3.813,-0.19 3.847,-0.19 c 0,0 -0.365,1.506 -0.662,2.333 -0.772,0.815 -3.494,-0.2 -3.456,0.576 l 0.565,11.407 c 0.057,1.146 0.057,1.146 2.253,-1.634 0,0 2.833,-3.591 3.98,-3.647 1.148,-0.058 3.627,2.864 3.627,2.864 2.379,2.96 2.36,2.588 2.302,1.408 l -0.584,-11.776 c -0.038,-0.778 -0.78,-0.74 -1.17,-1.094 -0.391,-0.385 -0.41,-0.756 -0.41,-0.756 l 1.485,-0.075 3.476,-0.172 3.442,-0.17 c 0,0 0.444,1.466 -0.31,1.943 -1.095,0.427 -3.018,0.522 -3.018,0.522 l 0.943,19.032 c 0.019,0.405 1.538,0.33 2.314,0.29 0.763,0.369 1.243,1.868 1.243,1.868 l -3.442,0.17 -0.405,0.02 -1.924,0.096 -1.147,0.057 -1.485,0.073 c 0,0 1.053,-1.98 1.016,-2.722 -0.02,-0.406 -4.945,-6.25 -5.707,-6.618 -1.127,0.46 -3.162,5.128 -4.548,7.87 -0.315,1.165 0.432,1.906 0.87,1.885"
       id="path15"
       inkscape:connector-curvature="0"
       style="fill:#e12f31;fill-rule:evenodd" />
    <path
       d="m 307.009,4676.257 c 1.008,0 1.829,0.873 1.829,1.943 0,1.071 -0.821,1.944 -1.829,1.944 -1.008,0 -1.829,-0.873 -1.829,-1.944 0,-1.07 0.821,-1.943 1.829,-1.943"
       id="path17"
       inkscape:connector-curvature="0"
       style="fill:#d23833;fill-rule:evenodd" />
    <path
       d="m 307.009,4676.257 c 1.008,0 1.829,0.873 1.829,1.943 0,1.071 -0.821,1.944 -1.829,1.944 -1.008,0 -1.829,-0.873 -1.829,-1.944 0,-1.07 0.821,-1.943 1.829,-1.943 z"
       stroke-miterlimit="22.926"
       id="path19"
       inkscape:connector-curvature="0"
       style="fill:none;stroke:#d23833;stroke-width:0.36500001;stroke-miterlimit:22.9260006" />
  </g>
  <path
     d="M 0,0 134,0 134,80 0,80 Z"
     id="path21"
     inkscape:connector-curvature="0"
     style="fill:none" />
</svg>
