<?xml version="1.0" encoding="UTF-8" standalone="no"?>
<svg
   xmlns:dc="http://purl.org/dc/elements/1.1/"
   xmlns:cc="http://creativecommons.org/ns#"
   xmlns:rdf="http://www.w3.org/1999/02/22-rdf-syntax-ns#"
   xmlns:svg="http://www.w3.org/2000/svg"
   xmlns="http://www.w3.org/2000/svg"
   xmlns:sodipodi="http://sodipodi.sourceforge.net/DTD/sodipodi-0.dtd"
   xmlns:inkscape="http://www.inkscape.org/namespaces/inkscape"
   viewBox="0 0 600 358.00001"
   height="358"
   width="600"
   id="svg2"
   version="1.1"
   inkscape:version="0.91 r"
   sodipodi:docname="LogoArteEtMarte-red-bg-transparent-600x358.svg">
  <metadata
     id="metadata25">
    <rdf:RDF>
      <cc:Work
         rdf:about="">
        <dc:format>image/svg+xml</dc:format>
        <dc:type
           rdf:resource="http://purl.org/dc/dcmitype/StillImage" />
        <dc:title></dc:title>
      </cc:Work>
    </rdf:RDF>
  </metadata>
  <sodipodi:namedview
     pagecolor="#ffffff"
     bordercolor="#666666"
     borderopacity="1"
     objecttolerance="10"
     gridtolerance="10"
     guidetolerance="10"
     inkscape:pageopacity="0"
     inkscape:pageshadow="2"
     inkscape:window-width="1920"
     inkscape:window-height="1028"
     id="namedview23"
     showgrid="false"
     fit-margin-top="0"
     fit-margin-left="0"
     fit-margin-right="0"
     fit-margin-bottom="0"
     inkscape:zoom="0.84381409"
     inkscape:cx="1014.6098"
     inkscape:cy="30.881124"
     inkscape:window-x="0"
     inkscape:window-y="0"
     inkscape:window-maximized="1"
     inkscape:current-layer="svg2" />
  <defs
     id="defs4">
    <clipPath
       id="a">
      <path
         d="m 0,5520 1940,0 L 1940,0 0,0 0,5520 Z"
         id="path7"
         inkscape:connector-curvature="0" />
    </clipPath>
  </defs>
  <path
     d="m 0,0 600,0 0,358 -600,0 z"
     id="path21"
     inkscape:connector-curvature="0"
     style="fill:none;fill-opacity:1" />
  <g
     id="g4874"
     transform="translate(-1.0168186,278.11726)"
     style="fill:#e12f31;fill-opacity:1">
    <path
       d="m 505.12173,-186.73231 c -2.82125,-5.99039 -8.69207,-10.00482 -14.96239,-10.22769 l -373.32039,-7.1265 c -5.26197,-0.0897 -10.71965,2.31842 -14.99228,6.57746 -4.471054,4.45747 -6.993324,15.18798 -6.922654,20.72447 l 2.174369,147.305449 0.994773,0 2.168942,-147.058109 0.61425,-5.95506 1.03283,-4.25089 1.45683,-3.21807 c 1.05729,-1.5275 2.47063,-3.20176 4.04433,-4.22915 l 2.7397,-1.62534 3.26156,-1.20678 3.55781,-0.76103 186.17776,5.77567 186.17777,4.2808 1.80197,0.29355 1.54384,0.50826 1.29376,0.70123 c 0.75286,0.50826 1.43234,1.18775 1.93786,1.93519 l 0.80996,1.4215 0.67952,1.80473 0.39134,1.68513 -19.38998,160.359826 -2.78861,5.685976 -3.68284,4.6912074 -2.07922,1.8482149 -2.26138,1.5465179 -2.46788,1.2665732 -2.19886,0.8045149 -249.29972,1.451391 -72.45002,-9.6596373 -0.4539,-0.04894 -0.21202,0.951291 72.90936,11.8883684 250.28637,4.4465866 0.0708,0 c 2.87288,0 6.39806,-1.9841104 8.51266,-3.2343761 6.80033,-4.0388911 14.21494,-12.1139597 15.21515,-19.8438489 l 19.57477,-161.862855 c 0.22299,-1.91073 -0.41597,-4.39495 -1.94879,-7.64563"
       id="path11"
       inkscape:connector-curvature="0"
       style="fill:#e12f31;fill-opacity:1" />
    <path
       d="M 464.5697,-89.826055"
       id="path13"
       inkscape:connector-curvature="0"
       style="fill:#e12f31;fill-opacity:1" />
    <path
       d="m 465.59709,-159.01724 0.40209,-9.45036 -66.42158,-2.83755 c 0,0 2.70981,7.55865 5.91972,7.69727 l 14.49762,0.6197 c 3.02509,0.12774 7.15912,2.32929 6.94168,7.46624 l -1.68242,39.35882 c -0.0489,1.10078 -2.07924,5.60988 -5.45224,7.12107 -3.09032,1.33452 -11.59754,2.53314 -11.59754,2.53314 l 41.46795,1.77483 c 0,0 2.37551,-8.26261 -1.66065,-8.43656 -4.1286,-0.17664 -7.47713,5.01193 -11.51874,2.81581 -4.12859,-2.28852 -0.98934,-49.95073 -0.98934,-49.95073 l 30.09327,1.28832 z m -80.44354,41.3076 c -4.0851,0.92683 -11.45078,5.57726 -14.22038,-2.7397 -0.92954,-4.08239 0.38866,-9.09703 0.60882,-14.23398 l 1.00837,0.0434 c 6.05562,0.25823 14.49218,-1.49487 14.79659,-8.57517 -2.15263,0.91867 -15.54675,2.46248 -15.36465,-1.75852 l 0.51913,-12.14114 c 0.21744,-5.13695 5.44136,-6.93624 9.48026,-6.76501 6.28121,-0.742 11.32575,-2.63643 14.66069,-7.55322 l -45.96347,-1.96503 c 0.97031,3.07401 1.85093,6.14531 2.73155,9.21661 l 4.03617,0.17396 c 1.00837,0.0407 6.14532,0.26091 5.84091,7.43362 l -0.39412,9.17313 c -0.22016,5.15326 -0.13316,3.13653 -4.21284,3.97095 -4.221,1.93519 -6.36547,4.87602 -0.26091,6.07193 6.00941,1.35898 3.42191,14.59002 3.20176,19.74328 0,0 -0.25823,6.05562 -12.59233,8.57517 l 40.73411,1.74222 c 5.35983,-4.93311 1.48945,-11.17899 -4.60966,-10.4098 m -49.35821,-2.11459 c -4.08238,0.92955 -11.45078,5.57727 -14.22038,-2.73698 -0.92955,-4.08238 0.38865,-9.09975 0.60882,-14.23398 l 1.00836,0.0408 c 6.05563,0.26091 14.4949,-1.49216 14.7966,-8.57246 -2.15263,0.91596 -15.54675,2.45976 -15.36465,-1.76123 l 0.51641,-12.14115 c 0.22017,-5.13695 5.4468,-6.9308 9.48298,-6.76229 6.28121,-0.742 11.32575,-2.64186 14.66069,-7.55322 l -45.96347,-1.96506 c 0.97031,3.07401 1.85093,6.14259 2.73155,9.21661 l 4.03618,0.17122 c 1.00836,0.0408 6.14803,0.26091 5.8409,7.43635 l -0.39139,9.17313 c -0.22285,5.15325 -0.1359,3.13381 -4.21557,3.96822 -4.21827,1.93519 -6.36546,4.87603 -0.26091,6.07193 6.00942,1.35898 3.42192,14.59546 3.20177,19.746 0,0 -0.26092,6.05562 -12.59233,8.57518 l 40.73412,1.73949 c 5.35982,-4.93038 1.48944,-11.17898 -4.60967,-10.40979 m -38.08954,-46.37661 0.405,-9.45036 -66.4243,-2.84027 c 0,0 2.70981,7.56137 5.92245,7.69727 l 14.49218,0.6197 c 3.03052,0.13048 7.16455,2.32929 6.94439,7.46896 l -1.68242,39.3561 c -0.0489,1.10078 -2.07924,5.60988 -5.45223,7.12107 -3.09033,1.33724 -11.59755,2.53586 -11.59755,2.53586 l 41.46796,1.77483 c 0,0 2.3755,-8.26261 -1.66067,-8.43656 -4.12859,-0.17669 -7.47712,5.01193 -11.51873,2.81581 -4.12859,-2.28853 -0.98662,-49.95073 -0.98662,-49.95073 l 30.09057,1.28832 z m -94.81614,14.14428 c -3.94376,-0.17122 -6.97973,-4.43572 -6.71608,-10.58103 0.2147,-5.04726 2.63642,-10.08908 6.5829,-9.92057 4.12859,0.17396 7.94461,5.49029 7.72989,10.53211 -0.26364,6.14804 -3.46812,10.14616 -7.59671,9.96949 m 23.15161,34.62957 c -0.69308,-0.94857 -2.06565,-1.10078 -3.07673,-1.14155 l -15.24777,-28.13092 c 5.18859,-0.97574 11.63831,-5.66423 12.07862,-15.94085 0.68765,-16.05501 -15.17439,-17.00901 -29.9438,-17.63958 l -0.742,17.34061 -1.70144,39.81815 c 0,0 -1.3155,7.1102 -3.42736,7.02051 l 3.12022,0.13589 3.12023,0.13048 8.16476,0.35333 5.04725,0.21201 c -3.07674,-1.14156 -4.74285,-7.37113 -4.74285,-7.37113 l 0.6958,-16.23983 c 0.0434,-1.00564 0.087,-2.01944 1.14155,-3.07673 l 11.11103,23.91264 c -0.0462,1.10077 -0.0897,2.11185 -1.14155,3.07674 l 8.25445,0.35332 3.02781,0.13048 3.02782,0.12775 1.10077,0.0462 c 0,0 1.52478,-1.22037 0.13317,-3.1175 m -70.10984,-34.80082 -12.29335,-0.52457 c 3.50617,-8.94754 6.31654,-16.64209 6.92537,-17.99292 1.02195,-2.34832 2.20155,-2.02216 3.02781,0.12775 0.78821,3.0713 0.78821,3.0713 4.48736,15.4489 -0.12775,3.03053 -2.14719,2.94084 -2.14719,2.94084 m 20.32492,27.61722 -17.26722,-51.84243 c 1.05457,-1.05729 1.13883,-2.9816 1.22852,-5.09618 l -16.42193,-0.69852 -0.22017,5.13696 -18.32722,50.31764 -1.10078,-0.0462 -6.49593,7.90383 20.3657,0.86975 c 0,0 -2.80765,-5.26741 -2.6772,-8.29522 0.0897,-2.10914 2.54946,-10.18421 5.96865,-19.22959 l 17.34061,0.73928 c 0,0 2.01944,0.0897 2.9354,2.24232 1.84821,4.12316 2.63914,9.2139 5.40603,15.48696 0.88062,7.30045 -1.35626,10.23585 -1.35626,10.23585 l 2.10913,0.0924 8.16476,0.34791 3.94377,0.16854 c 0,0 -1.88899,-3.11207 -3.59586,-8.33327 m 251.14522,104.410551 c -4.08782,0.905077 -11.48883,5.501153 -14.20136,-2.829403 -0.90236,-4.09325 0.45119,-9.099739 0.70396,-14.233971 l 1.01108,0.04894 c 6.0529,0.301701 14.50305,-1.394315 14.85366,-8.471893 -2.16077,0.902364 -15.56305,2.353755 -15.35649,-1.864522 l 0.60339,-12.135703 c 0.2555,-5.136954 5.49029,-6.900909 9.52646,-6.699779 6.28665,-0.701235 11.34206,-2.565757 14.71234,-7.455376 l -45.94989,-2.27765 c 0.95129,3.082169 1.81016,6.158902 2.66904,9.235639 l 4.03618,0.198403 c 1.00564,0.05436 6.14259,0.309851 5.78926,7.474402 l -0.4539,9.173122 c -0.25549,5.150543 -0.15492,3.133813 -4.24274,3.941051 -4.22915,1.905291 -6.39808,4.832534 -0.29897,6.06921 5.99854,1.405187 3.32135,14.617205 3.06586,19.767744 0,0 -0.29897,6.052903 -12.6494,8.4882 l 40.72052,2.0167294 c 5.39244,-4.8923324 1.56555,-11.1681134 -4.539,-10.4451314 m -37.77425,-46.626658 0.46749,-9.450358 -66.39984,-3.288735 c 0,0 2.65817,7.577678 5.86809,7.735321 l 14.48674,0.72026 c 3.03053,0.152194 7.14824,2.378221 6.89275,7.512452 l -1.94877,39.345233 c -0.0544,1.103494 -2.11458,5.599003 -5.49844,7.085731 -3.09848,1.315491 -11.61386,2.457036 -11.61386,2.457036 l 41.45437,2.052063 c 0,0 2.43258,-8.246297 -1.6036,-8.447427 -4.1313,-0.203866 -7.50973,4.962998 -11.53775,2.739703 -4.11228,-2.318422 -0.65231,-49.956161 -0.65231,-49.956161 l 30.08513,1.494882 z m -94.91127,13.497403 c -3.94104,-0.195672 -6.94711,-4.48192 -6.6427,-10.627236 0.25003,-5.04454 2.70709,-10.072769 6.65086,-9.874357 4.12586,0.206553 7.90655,5.541923 7.6565,10.586463 -0.30439,6.142598 -3.53607,10.118978 -7.66466,9.91513 m 22.92058,34.787212 c -0.69036,-0.951287 -2.06021,-1.114366 -3.07129,-1.166006 l -15.05752,-28.231482 c 5.19131,-0.94042 11.67909,-5.585418 12.18735,-15.859317 0.79636,-16.046856 -15.05752,-17.106859 -29.82421,-17.837991 l -0.85888,17.329733 -1.97324,39.807287 c 0,0 -1.3617,7.104756 -3.47084,7.001471 l 3.11751,0.154926 3.12022,0.152194 8.15932,0.404955 5.04726,0.250075 c -3.0713,-1.163289 -4.6912,-7.403732 -4.6912,-7.403732 l 0.80451,-16.23711 c 0.0489,-1.005645 0.10057,-2.014012 1.16329,-3.065861 l 10.94524,23.988743 c -0.0544,1.098054 -0.1033,2.109139 -1.16057,3.068579 l 8.25174,0.407686 3.02781,0.146777 3.02781,0.154925 1.10077,0.05436 c 0,0 1.53021,-1.214928 0.15493,-3.122937 M 247.7578,-53.807606 235.47261,-54.41915 c 3.56596,-8.92307 6.42798,-16.598597 7.04767,-17.946707 1.03283,-2.337448 2.21514,-2.008576 3.02781,0.146776 0.76647,3.076737 0.76647,3.076737 4.38136,15.484236 -0.14951,3.022379 -2.16893,2.92453 -2.16893,2.92453 m 20.1401,27.755838 -16.9166,-51.959301 c 1.06,-1.051849 1.15785,-2.978888 1.26385,-5.088027 l -16.4165,-0.809951 c -0.10871,2.106421 -0.20113,4.033456 -0.25549,5.131514 l -18.67241,50.198059 -1.09805,-0.05436 -6.55029,7.854914 20.36298,1.008362 c 0,0 -2.77233,-5.286434 -2.62284,-8.311531 0.10599,-2.111857 2.6174,-10.165182 6.09911,-19.188819 l 17.33517,0.856159 c 0,0 2.01673,0.100567 2.92181,2.261347 1.81832,4.139458 2.57663,9.23292 5.29731,15.525004 0.83442,7.303169 -1.42421,10.224976 -1.42421,10.224976 l 2.10914,0.105985 8.16204,0.402269 3.94105,0.198403 c 0,0 -1.86453,-3.125655 -3.53607,-8.357736 m -104.98404,-61.469454 -21.82797,-1.084464 5.92245,6.639981 -2.15535,43.471101 c -0.40768,8.257173 -3.83505,14.339973 -9.06169,14.079049 l 8.34415,0.410418 10.36359,0.516412 10.45601,0.516417 c 0,0 -0.99206,-4.093254 -1.7993,-6.341011 -2.09826,-2.215141 -9.49656,0.543591 -9.39328,-1.565547 l 1.53565,-31.003805 c 0.15493,-3.114784 0.15493,-3.114784 6.12357,4.441151 0,0 7.69999,9.760209 10.8175,9.912412 3.12022,0.157656 9.85805,-7.784244 9.85805,-7.784244 6.46603,-8.045171 6.41439,-7.034091 6.25675,-3.826894 l -1.58729,32.006736 c -0.1033,2.114575 -2.12001,2.01129 -3.18002,2.973448 -1.06272,1.046418 -1.11436,2.054781 -1.11436,2.054781 l 4.03617,0.203865 9.44764,0.46749 9.35523,0.462054 c 0,0 1.20678,-3.984533 -0.84257,-5.281003 -2.97617,-1.160571 -8.20281,-1.418777 -8.20281,-1.418777 l 2.56304,-51.728274 c 0.0516,-1.100772 4.18023,-0.896929 6.28936,-0.788208 2.07381,-1.002926 3.37843,-5.077155 3.37843,-5.077155 l -9.35522,-0.462054 -1.10078,-0.05436 -5.22936,-0.26091 -3.1175,-0.154926 -4.03618,-0.198403 c 0,0 2.86202,5.381566 2.76145,7.398296 -0.0544,1.103494 -13.44033,16.987272 -15.51141,17.987481 -3.06315,-1.250262 -8.5942,-13.937714 -12.3613,-21.390372 -0.85616,-3.166424 1.17416,-5.180436 2.36463,-5.12336"
       id="path15"
       inkscape:connector-curvature="0"
       style="fill:#e12f31;fill-rule:evenodd;fill-opacity:1" />
    <path
       d="m 346.80037,-130.51668 c 2.73971,0 4.97116,-2.37278 4.97116,-5.281 0,-2.91094 -2.23145,-5.28372 -4.97116,-5.28372 -2.7397,0 -4.97115,2.37278 -4.97115,5.28372 0,2.90822 2.23145,5.281 4.97115,5.281"
       id="path17"
       inkscape:connector-curvature="0"
       style="fill:#e12f31;fill-rule:evenodd;fill-opacity:1" />
    <path
       d="m 346.80037,-130.51668 c 2.73971,0 4.97116,-2.37278 4.97116,-5.281 0,-2.91094 -2.23145,-5.28372 -4.97116,-5.28372 -2.7397,0 -4.97115,2.37278 -4.97115,5.28372 0,2.90822 2.23145,5.281 4.97115,5.281 z"
       stroke-miterlimit="22.926"
       id="path19"
       inkscape:connector-curvature="0"
       style="fill:#e12f31;stroke:none;stroke-width:0.2215593;stroke-miterlimit:22.9260006;fill-opacity:1" />
  </g>
</svg>
