<svg xmlns="http://www.w3.org/2000/svg" viewBox="0 0 600.00001 357.00001" height="357" width="600"><defs><clipPath id="a"><path d="M0 5520h1940V0H0v5520z"/></clipPath></defs><g clip-path="url(#a)" transform="matrix(2.70879 0 0 -2.70879 -485.993 12814.192)"><path d="M365.259 4696.94c-1.038 2.204-3.198 3.681-5.505 3.763l-137.353 2.622c-1.936.033-3.944-.853-5.516-2.42-1.645-1.64-2.573-5.588-2.547-7.625l.8-54.197h.366l.798 54.106.226 2.191.38 1.564.536 1.184c.389.562.909 1.178 1.488 1.556l1.008.598 1.2.444 1.309.28 68.499-2.125 68.499-1.575.663-.108.568-.187.476-.258c.277-.187.527-.437.713-.712l.298-.523.25-.664.144-.62-7.134-59-1.026-2.092-1.355-1.726-.765-.68-.832-.569-.908-.466-.809-.296-91.723-.534-26.656 3.554-.167.018-.078-.35 26.825-4.374 92.086-1.636h.026c1.057 0 2.354.73 3.132 1.19 2.502 1.486 5.23 4.457 5.598 7.301l7.202 59.553c.082.703-.153 1.617-.717 2.813" fill="#e12f31"/><path d="M350.339 4661.286a1.69 1.69 0 0 1-1.18.554l-123.47 5.716a1.706 1.706 0 0 1-1.78-1.623c-.043-.938.685-2.913 1.623-2.957l123.47-6.893h.08c.425 0 .83 1.332 1.146 1.62.336.308.533 1.314.554 1.769.02.454-.136 1.478-.443 1.814" fill="#e12f31"/><path d="M350.717 4686.743l.148 3.477-24.438 1.044s.997-2.781 2.178-2.832l5.334-.228c1.113-.047 2.634-.857 2.554-2.747l-.619-14.481c-.018-.405-.765-2.064-2.006-2.62-1.137-.491-4.267-.932-4.267-.932l15.257-.653s.874 3.04-.611 3.104c-1.519.065-2.751-1.844-4.238-1.036-1.519.842-.364 18.378-.364 18.378l11.072-.474zm-29.597-15.198c-1.503-.341-4.213-2.052-5.232 1.008-.342 1.502.143 3.347.224 5.237l.371-.016c2.228-.095 5.332.55 5.444 3.155-.792-.338-5.72-.906-5.653.647l.191 4.467c.08 1.89 2.002 2.552 3.488 2.489 2.311.273 4.167.97 5.394 2.779l-16.911.723c.357-1.131.681-2.261 1.005-3.391l1.485-.064c.371-.015 2.261-.096 2.149-2.735l-.145-3.375c-.081-1.896-.049-1.154-1.55-1.461-1.553-.712-2.342-1.794-.096-2.234 2.211-.5 1.259-5.368 1.178-7.264 0 0-.095-2.228-4.633-3.155l14.987-.641c1.972 1.815.548 4.113-1.696 3.83m-18.16.778c-1.502-.342-4.213-2.052-5.232 1.007-.342 1.502.143 3.348.224 5.237l.371-.015c2.228-.096 5.333.549 5.444 3.154-.792-.337-5.72-.905-5.653.648l.19 4.467c.081 1.89 2.004 2.55 3.489 2.488 2.311.273 4.167.972 5.394 2.779l-16.911.723c.357-1.131.681-2.26 1.005-3.391l1.485-.063c.371-.015 2.262-.096 2.149-2.736l-.144-3.375c-.082-1.896-.05-1.153-1.551-1.46-1.552-.712-2.342-1.794-.096-2.234 2.211-.5 1.259-5.37 1.178-7.265 0 0-.096-2.228-4.633-3.155l14.987-.64c1.972 1.814.548 4.113-1.696 3.83m-14.014 17.063l.149 3.477-24.439 1.045s.997-2.782 2.179-2.832l5.332-.228c1.115-.048 2.636-.857 2.555-2.748l-.619-14.48c-.018-.405-.765-2.064-2.006-2.62-1.137-.492-4.267-.933-4.267-.933l15.257-.653s.874 3.04-.611 3.104c-1.519.065-2.751-1.844-4.238-1.036-1.519.842-.363 18.378-.363 18.378l11.071-.474zm-34.885-5.204c-1.451.063-2.568 1.632-2.471 3.893.079 1.857.97 3.712 2.422 3.65 1.519-.064 2.923-2.02 2.844-3.875-.097-2.262-1.276-3.733-2.795-3.668m8.518-12.741c-.255.349-.76.405-1.132.42l-5.61 10.35c1.909.359 4.282 2.084 4.444 5.865.253 5.907-5.583 6.258-11.017 6.49l-.273-6.38-.626-14.65s-.484-2.616-1.261-2.583l1.148-.05 1.148-.048 3.004-.13 1.857-.078c-1.132.42-1.745 2.712-1.745 2.712l.256 5.975c.016.37.032.743.42 1.132l4.088-8.798c-.017-.405-.033-.777-.42-1.132l3.037-.13 1.114-.048 1.114-.047.405-.017s.561.449.049 1.147m-25.795 12.804l-4.523.193c1.29 3.292 2.324 6.123 2.548 6.62.376.864.81.744 1.114-.047.29-1.13.29-1.13 1.651-5.684-.047-1.115-.79-1.082-.79-1.082m7.478-10.161l-6.353 19.074c.388.389.419 1.097.452 1.875l-6.042.257-.081-1.89-6.743-18.513-.405.017-2.39-2.908 7.493-.32s-1.033 1.938-.985 3.052c.033.776.938 3.747 2.196 7.075l6.38-.272s.743-.033 1.08-.825c.68-1.517.971-3.39 1.989-5.698.324-2.686-.499-3.766-.499-3.766l.776-.034 3.004-.128 1.451-.062s-.695 1.145-1.323 3.066m92.402-38.415c-1.504-.333-4.227-2.024-5.225 1.041-.332 1.506.166 3.348.259 5.237l.372-.018c2.227-.111 5.336.513 5.465 3.117-.795-.332-5.726-.866-5.65.686l.222 4.465c.094 1.89 2.02 2.539 3.505 2.465 2.313.258 4.173.944 5.413 2.743l-16.906.838c.35-1.134.666-2.266.982-3.398l1.485-.073c.37-.02 2.26-.114 2.13-2.75l-.167-3.375c-.094-1.895-.057-1.153-1.561-1.45-1.556-.701-2.354-1.778-.11-2.233 2.207-.517 1.222-5.378 1.128-7.273 0 0-.11-2.227-4.654-3.123l14.982-.742c1.984 1.8.576 4.109-1.67 3.843m-13.898 17.155l.172 3.477-24.43 1.21s.978-2.788 2.159-2.846l5.33-.265c1.115-.056 2.63-.875 2.536-2.764l-.717-14.476c-.02-.406-.778-2.06-2.023-2.607-1.14-.484-4.273-.904-4.273-.904l15.252-.755s.895 3.034-.59 3.108c-1.52.075-2.763-1.826-4.245-1.008-1.513.853-.24 18.38-.24 18.38l11.069-.55zm-34.92-4.966c-1.45.072-2.556 1.649-2.444 3.91.092 1.856.996 3.706 2.447 3.633 1.518-.076 2.909-2.039 2.817-3.895-.112-2.26-1.301-3.723-2.82-3.648m8.433-12.799c-.254.35-.758.41-1.13.429l-5.54 10.387c1.91.346 4.297 2.055 4.484 5.835.293 5.904-5.54 6.294-10.973 6.563l-.316-6.376-.726-14.646s-.501-2.614-1.277-2.576l1.147-.057 1.148-.056 3.002-.149 1.857-.092c-1.13.428-1.726 2.724-1.726 2.724l.296 5.974c.018.37.037.741.428 1.128l4.027-8.826c-.02-.404-.038-.776-.427-1.129l3.036-.15 1.114-.054 1.114-.057.405-.02s.563.447.057 1.149m-25.71 12.976l-4.52.225c1.312 3.283 2.365 6.107 2.593 6.603.38.86.815.739 1.114-.054.282-1.132.282-1.132 1.612-5.697-.055-1.112-.798-1.076-.798-1.076m7.41-10.212l-6.224 19.117c.39.387.426 1.096.465 1.872l-6.04.298c-.04-.775-.074-1.484-.094-1.888l-6.87-18.469-.404.02-2.41-2.89 7.492-.371s-1.02 1.945-.965 3.058c.039.777.963 3.74 2.244 7.06l6.378-.315s.742-.037 1.075-.832c.669-1.523.948-3.397 1.949-5.712.307-2.687-.524-3.762-.524-3.762l.776-.039 3.003-.148 1.45-.073s-.686 1.15-1.301 3.075m-38.626 22.616l-8.031.399 2.179-2.443-.793-15.994c-.15-3.038-1.411-5.276-3.334-5.18l3.07-.151 3.813-.19 3.847-.19s-.365 1.506-.662 2.333c-.772.815-3.494-.2-3.456.576l.565 11.407c.057 1.146.057 1.146 2.253-1.634 0 0 2.833-3.591 3.98-3.647 1.148-.058 3.627 2.864 3.627 2.864 2.379 2.96 2.36 2.588 2.302 1.408l-.584-11.776c-.038-.778-.78-.74-1.17-1.094-.391-.385-.41-.756-.41-.756l1.485-.075 3.476-.172 3.442-.17s.444 1.466-.31 1.943c-1.095.427-3.018.522-3.018.522l.943 19.032c.019.405 1.538.33 2.314.29.763.369 1.243 1.868 1.243 1.868l-3.442.17-.405.02-1.924.096-1.147.057-1.485.073s1.053-1.98 1.016-2.722c-.02-.406-4.945-6.25-5.707-6.618-1.127.46-3.162 5.128-4.548 7.87-.315 1.165.432 1.906.87 1.885" fill="#e12f31" fill-rule="evenodd"/><path d="M307.009 4676.257c1.008 0 1.829.873 1.829 1.943 0 1.071-.821 1.944-1.829 1.944s-1.829-.873-1.829-1.944c0-1.07.821-1.943 1.829-1.943" fill="#d23833" fill-rule="evenodd"/><path d="M307.009 4676.257c1.008 0 1.829.873 1.829 1.943 0 1.071-.821 1.944-1.829 1.944s-1.829-.873-1.829-1.944c0-1.07.821-1.943 1.829-1.943z" fill="none" stroke="#d23833" stroke-width=".365" stroke-miterlimit="22.926"/></g><path fill="none" d="M0 0h600v357H0z"/></svg>